<?xml version="1.0" encoding="UTF-8"?>
<svg id="Capa_2" data-name="Capa 2" xmlns="http://www.w3.org/2000/svg" viewBox="0 0 190.58 202.11">
  <defs>
    <style>
      .cls-1 {
        fill: #333;
        stroke-width: 0px;
      }
    </style>
  </defs>
  <g id="Capa_1-2" data-name="Capa 1">
    <g>
      <path class="cls-1" d="M128.38,61.84c-6.3.88-13.7,6.35-13.67,13.67.03,7.64,8.11,12.38,13.67,13.67,8.49,1.97,18.96-2.25,20.58-8.76,2.01-8.08-9.53-20.12-20.58-18.58Z"/>
      <path class="cls-1" d="M101.73,113.72h-8.53c-3.15,0-5.06,3.48-3.36,6.14l4.26,6.68c1.57,2.46,5.16,2.46,6.73,0l4.26-6.68c1.69-2.66-.21-6.14-3.36-6.14Z"/>
      <path class="cls-1" d="M81.02,75.51c.02-7.33-7.37-12.8-13.67-13.67-11.04-1.54-22.58,10.5-20.58,18.58,1.62,6.51,12.09,10.73,20.58,8.76,5.56-1.29,13.65-6.03,13.67-13.67Z"/>
      <path class="cls-1" d="M186.73,79.96c.61-1.72.91-3.24,1.11-4.35,1.14-6.52,10.36-59.22-13.09-72.3-13.44-7.49-37.13-1.7-53.9,11.7-8.13-2.26-16.7-3.47-25.56-3.47-7.14,0-14.09.79-20.78,2.28C57.86,1.27,35.18-3.96,22.15,3.31,2.7,14.15,5.71,52.23,7.96,68.64,2.85,80.33,0,93.25,0,106.82c0,52.63,42.66,95.29,95.29,95.29s95.29-42.66,95.29-95.29c0-9.33-1.35-18.34-3.85-26.86ZM45.18,140.43c-4.78.27-11.68-7.43-11.68-7.43-2.69-5.04-6.9-14.52-7.43-27.08-.19-4.45-.55-15.87,5.46-28.3,3.9-8.08,12.31-25.48,28.07-25.83,14.47-.32,28.22,13.88,28.07,25.83-.11,8.8-7.68,9.96-19.12,26.17-14.44,20.46-14.77,36.16-23.36,36.64ZM97.47,180.96c-8.82.72-23.12-13.59-23.12-13.59,5.46-1.43,12.77-2.79,21.45-2.86,9.35-.08,17.18,1.36,22.88,2.86-9.06,11.54-16.2,13.18-21.22,13.59ZM135.13,156.29c-6.46,7.57-20.86,9.1-28.6,3.22-10.54-8-7.76-28.98-8.93-28.94-1.16.04,2.96,20.6-6.8,28.94-7.66,6.54-23.55,5.32-30.75-3.22-10.67-12.65,3.64-34.38,5.72-37.54,2.72-4.13,13.98-21.23,32.18-20.74,15.19.41,24.69,12.79,28.6,17.88,6.32,8.23,18.31,29,8.58,40.4ZM169.56,107.81c-.54,12.56-4.74,22.04-7.43,27.08,0,0-6.9,7.7-11.68,7.43-8.59-.48-8.92-16.17-23.36-36.64-11.44-16.21-19-17.38-19.12-26.17-.15-11.95,13.6-26.16,28.07-25.83,15.75.35,24.16,17.75,28.07,25.83,6.01,12.43,5.65,23.84,5.46,28.3ZM181.49,38.15c-1.35-1.99-4.48-6.61-10.01-8.71-7.14-2.7-10.26,1.86-16.98-.87-5.14-2.09-4.92-5.4-10.01-8.27-3.31-1.86-8.84-3.54-18.13-1.3,3.57-3.44,11.43-10.03,23.31-12.68,5.02-1.12,15-3.34,23.25,1.09,11.22,6.02,16.63,22.96,12.79,41.58-.35-2.34-1.29-6.54-4.21-10.85Z"/>
    </g>
  </g>
</svg>