<?xml version="1.0" encoding="UTF-8"?>
<svg id="Capa_2" data-name="Capa 2" xmlns="http://www.w3.org/2000/svg" viewBox="0 0 882.54 202.11">
  <defs>
    <style>
      .cls-1 {
        fill: #333;
      }

      .cls-1, .cls-2 {
        stroke-width: 0px;
      }

      .cls-2 {
        fill: #00a6a6;
      }
    </style>
  </defs>
  <g id="Capa_1-2" data-name="Capa 1">
    <g>
      <path class="cls-1" d="M128.38,61.84c-6.3.88-13.7,6.35-13.67,13.67.03,7.64,8.11,12.38,13.67,13.67,8.49,1.97,18.96-2.25,20.58-8.76,2.01-8.08-9.53-20.12-20.58-18.58Z"/>
      <path class="cls-1" d="M101.73,113.72h-8.53c-3.15,0-5.06,3.48-3.36,6.14l4.26,6.68c1.57,2.46,5.16,2.46,6.73,0l4.26-6.68c1.69-2.66-.21-6.14-3.36-6.14Z"/>
      <path class="cls-1" d="M81.02,75.51c.02-7.33-7.37-12.8-13.67-13.67-11.04-1.54-22.58,10.5-20.58,18.58,1.62,6.51,12.09,10.73,20.58,8.76,5.56-1.29,13.65-6.03,13.67-13.67Z"/>
      <path class="cls-1" d="M186.73,79.96c.61-1.72.91-3.24,1.11-4.35,1.14-6.52,10.36-59.22-13.09-72.3-13.44-7.49-37.13-1.7-53.9,11.7-8.13-2.26-16.7-3.47-25.56-3.47-7.14,0-14.09.79-20.78,2.28C57.86,1.27,35.18-3.96,22.15,3.31,2.7,14.15,5.71,52.23,7.96,68.64,2.85,80.33,0,93.25,0,106.82c0,52.63,42.66,95.29,95.29,95.29s95.29-42.66,95.29-95.29c0-9.33-1.35-18.34-3.85-26.86ZM45.18,140.43c-4.78.27-11.68-7.43-11.68-7.43-2.69-5.04-6.9-14.52-7.43-27.08-.19-4.45-.55-15.87,5.46-28.3,3.9-8.08,12.31-25.48,28.07-25.83,14.47-.32,28.22,13.88,28.07,25.83-.11,8.8-7.68,9.96-19.12,26.17-14.44,20.46-14.77,36.16-23.36,36.64ZM97.47,180.96c-8.82.72-23.12-13.59-23.12-13.59,5.46-1.43,12.77-2.79,21.45-2.86,9.35-.08,17.18,1.36,22.88,2.86-9.06,11.54-16.2,13.18-21.22,13.59ZM135.13,156.29c-6.46,7.57-20.86,9.1-28.6,3.22-10.54-8-7.76-28.98-8.93-28.94-1.16.04,2.96,20.6-6.8,28.94-7.66,6.54-23.55,5.32-30.75-3.22-10.67-12.65,3.64-34.38,5.72-37.54,2.72-4.13,13.98-21.23,32.18-20.74,15.19.41,24.69,12.79,28.6,17.88,6.32,8.23,18.31,29,8.58,40.4ZM169.56,107.81c-.54,12.56-4.74,22.04-7.43,27.08,0,0-6.9,7.7-11.68,7.43-8.59-.48-8.92-16.17-23.36-36.64-11.44-16.21-19-17.38-19.12-26.17-.15-11.95,13.6-26.16,28.07-25.83,15.75.35,24.16,17.75,28.07,25.83,6.01,12.43,5.65,23.84,5.46,28.3ZM181.49,38.15c-1.35-1.99-4.48-6.61-10.01-8.71-7.14-2.7-10.26,1.86-16.98-.87-5.14-2.09-4.92-5.4-10.01-8.27-3.31-1.86-8.84-3.54-18.13-1.3,3.57-3.44,11.43-10.03,23.31-12.68,5.02-1.12,15-3.34,23.25,1.09,11.22,6.02,16.63,22.96,12.79,41.58-.35-2.34-1.29-6.54-4.21-10.85Z"/>
    </g>
    <path class="cls-1" d="M792.33,133.28l-39.91-89.94c-2.56-5.77-10.79-5.66-13.19.18l-7.64,18.59c-.43,1.05.1,2.24,1.17,2.62,10.42,4.16,8.21,3.01,11.8-6.27.93-2.58,4.11-2.63,5.1-.08l26.79,69.1c.86,2.24-.71,4.7-2.83,4.45-16.47-2.04-32.94-4.07-49.42-6.11-4.48-.83-.46-5.6-3.46-6.9-1.73-.1-10.74-5.4-11.62-2.14-2.68,6.17-8.33,16.58,2.26,18.61,24.54,2.64,49.08,5.3,73.61,7.94,5.51.59,9.58-4.99,7.34-10.04Z"/>
    <path class="cls-2" d="M736.62,70.64c-3.82-1.46-10.41-4.58-12.34,1.14,0,0-11.91,33.33-11.91,33.33-.97,2.72.45,5.71,3.17,6.68,3.81,1.45,10.41,4.56,12.34-1.14,0,0,11.9-33.34,11.9-33.34.97-2.71-.45-5.7-3.16-6.67ZM720.41,110.52c-4.45.06-4.45-6.92,0-6.85,4.43-.06,4.43,6.92,0,6.85Z"/>
    <g>
      <path class="cls-1" d="M233.79,134.13v-19.23h13.71c10.73,0,16.1-5.81,16.1-17.44V22.34h22.96v77.96c0,22.36-12.22,33.84-33.84,33.84h-18.93Z"/>
      <path class="cls-1" d="M355.43,121.31c-5.96,9.09-16.1,15.06-26.83,15.06-16.84,0-26.98-11.63-26.98-29.22v-49.64h21.17v43.82c0,9.24,4.62,15.8,14.76,15.8,7.9,0,14.31-4.47,17.89-8.79v-50.83h21.31v76.62h-21.31v-12.82Z"/>
      <path class="cls-1" d="M413.56,85.84v48.29h-21.32V22.34h21.32v63.5M419.57,92.85l20.83-35.33h23.1l-21.61,35.33,23.1,41.29h-23.7l-21.72-41.29Z"/>
      <path class="cls-1" d="M526.55,121.31c-5.96,9.09-16.1,15.06-26.83,15.06-16.84,0-26.98-11.63-26.98-29.22v-49.64h21.17v43.82c0,9.24,4.62,15.8,14.76,15.8,7.9,0,14.31-4.47,17.89-8.79v-50.83h21.32v76.62h-21.32v-12.82Z"/>
      <path class="cls-1" d="M584.69,83.45v50.68h-21.31V57.52h21.31v12.97c5.96-9.09,16.1-15.05,26.98-15.05,12.22,0,21.02,6.11,24.89,16.25,5.96-9.84,16.99-16.25,28.62-16.25,16.69,0,26.98,11.48,26.98,29.07v49.64h-21.17v-43.82c0-9.09-4.77-15.8-14.91-15.8-7.45,0-13.56,4.02-17.29,8.05v51.57h-21.32v-43.82c0-9.09-4.77-15.8-14.91-15.8-7.9,0-14.31,4.47-17.89,8.94Z"/>
      <path class="cls-1" d="M823.79,86.88v47.25h-21.32V57.52h21.32v12.37c5.51-8.5,14.16-14.46,24.89-14.46v23.55c-10.58,0-20.42,4.17-24.89,7.9Z"/>
      <path class="cls-1" d="M860.76,44.25v-21.91h21.31v21.91h-21.31ZM860.76,134.13V57.52h21.31v76.62h-21.31Z"/>
    </g>
    <g>
      <path class="cls-1" d="M250.54,179.14h-8.61l-1.49,6.98h-5.78l6.54-27.25h10.1l6.54,27.25h-5.81l-1.49-6.98ZM242.88,174.74h6.72l-2.33-10.86h-2.07l-2.33,10.86Z"/>
      <path class="cls-1" d="M315.45,186.11v-27.25h8.9c9.23,0,14.61,5.56,14.61,13.55s-5.41,13.7-14.57,13.7h-8.94ZM320.93,163.88v17.15h3.34c6.36,0,9.01-3.78,9.01-8.57s-2.65-8.57-9.05-8.57h-3.31Z"/>
      <path class="cls-1" d="M400.77,186.11l-6.54-27.25h5.89l4.8,22.23h1.6l4.76-22.23h5.92l-6.5,27.25h-9.92Z"/>
      <path class="cls-1" d="M492.3,186.11h-17.47v-27.25h17.08v4.65h-11.44v6.14h10.94v4.18h-10.94v7.63h11.84v4.65Z"/>
      <path class="cls-1" d="M550.38,186.11v-27.25h7.77l9.08,18.93h1.45v-18.93h5.27v27.25h-7.92l-8.94-18.93h-1.45v18.93h-5.27Z"/>
      <path class="cls-1" d="M637.26,186.11v-22.6h-5.74v-4.65h17.11v4.65h-5.74v22.6h-5.63Z"/>
      <path class="cls-1" d="M716.59,186.66c-6.54,0-10.75-4.21-10.75-11.04v-16.75h5.59v17.08c0,3.34,1.89,5.63,5.16,5.63s5.12-2.29,5.12-5.63v-17.08h5.63v16.75c0,6.83-4.18,11.04-10.75,11.04Z"/>
      <path class="cls-1" d="M797.33,176.45h-5.7v9.66h-5.63v-27.25h11.59c6.18,0,9.7,3.67,9.7,8.9,0,3.45-1.64,6.21-4.61,7.63l4.54,10.72h-5.92l-3.96-9.66ZM791.62,163.48v8.83h4.98c3.52,0,4.87-2.07,4.87-4.43s-1.31-4.4-4.8-4.4h-5.05Z"/>
      <path class="cls-1" d="M882.54,186.11h-17.47v-27.25h17.08v4.65h-11.44v6.14h10.94v4.18h-10.94v7.63h11.84v4.65Z"/>
    </g>
  </g>
</svg>